# xmcd
#
# Track frame offsets: 
#        150
#        13448
#        25123
#        35071
#        48732
#        60452
#        75977
#        90459
#        105774
#        117774
#        131397
#        145718
#        173238
#
# Disc length: 2997 seconds
#
# Revision: 1
# Processed by: cddbd v1.5.2PL0 Copyright (c) Steve Scherf et al.
# Submitted via: ExactAudioCopy v0.99pb5
#
DISCID=9c0bb30d
DTITLE=Useless ID - Redemption
DYEAR=2004
DGENRE=Punk
TTITLE0=It's Alright
TTITLE1=Kiss Me. Kill Me
TTITLE2=Pink Stars And Magazines
TTITLE3=Deny It
TTITLE4=Suffer For The Fame
TTITLE5=Turn Up The Stereo
TTITLE6=Before I Go
TTITLE7=Dying Love
TTITLE8=Drinkage
TTITLE9=Everything Turned Red
TTITLE10=State Of Fear
TTITLE11=Redemption
TTITLE12=ETRA
EXTD=
EXTT0=
EXTT1=
EXTT2=
EXTT3=
EXTT4=
EXTT5=
EXTT6=
EXTT7=
EXTT8=
EXTT9=
EXTT10=
EXTT11=
EXTT12=
PLAYORDER=
